STARTFONT 2.1
COMMENT $XConsortium: luRS24.bdf,v 1.8 94/04/02 16:24:02 gildea Exp $
COMMENT  (c) Copyright Bigelow & Holmes 1986, 1985. Lucida is a registered
COMMENT  trademark of Bigelow & Holmes. See LEGAL NOTICE file for terms 
COMMENT  of the license. 
COMMENT  
COMMENT  Translation to ISO8859-2 by Cub Soft;  Petr.Kolar@vslib.cz
COMMENT  
FONT -B&H-Lucida-Medium-R-Normal-Sans-34-240-100-100-P-191-ISO8859-2
SIZE 24 100 100
FONTBOUNDINGBOX 84 39 -22 -7
STARTPROPERTIES 20
COMMENT Begin LogicalFontDescription
FONTNAME_REGISTRY ""
FOUNDRY "B&H"
FAMILY_NAME "Lucida"
WEIGHT_NAME "Medium"
SLANT "R"
SETWIDTH_NAME "Normal"
ADD_STYLE_NAME "Sans"
PIXEL_SIZE 34
POINT_SIZE 240
RESOLUTION_X 100
RESOLUTION_Y 100
SPACING "P"
AVERAGE_WIDTH 191
CHARSET_REGISTRY "ISO8859"
CHARSET_ENCODING "2"
COMMENT END LogicalFontDescription
FONT_ASCENT 31
FONT_DESCENT 8
DEFAULT_CHAR 0
COPYRIGHT "Copyright Bigelow & Holmes 1986, 1985., Copyright 1996 Cub Soft"
FACE_NAME "Lucida Sans"
ENDPROPERTIES
CHARS 191
STARTCHAR space
ENCODING 32
SWIDTH 316 0
DWIDTH 11 0
BBX 1 1 0 0
BITMAP
00
ENDCHAR
STARTCHAR exclam
ENCODING 33
SWIDTH 205 0
DWIDTH 11 0
BBX 3 25 4 0
BITMAP
e0
e0
e0
e0
e0
e0
e0
e0
e0
e0
e0
e0
e0
e0
e0
e0
e0
e0
00
00
00
e0
e0
e0
e0
ENDCHAR
STARTCHAR quotedbl
ENCODING 34
SWIDTH 373 0
DWIDTH 13 0
BBX 8 8 2 18
BITMAP
e7
e7
e7
e7
e7
e7
e7
e7
ENDCHAR
STARTCHAR numbersign
ENCODING 35
SWIDTH 633 0
DWIDTH 21 0
BBX 21 25 0 0
BITMAP
0071c0
00e1c0
00e1c0
00e380
00e380
01c380
01c380
3ffff8
3ffff8
3ffff8
038700
038f00
038e00
078e00
070e00
ffffe0
ffffe0
ffffe0
0e1c00
0e1c00
0e3800
0e3800
1c3800
1c3800
1c7000
ENDCHAR
STARTCHAR dollar
ENCODING 36
SWIDTH 633 0
DWIDTH 21 0
BBX 15 30 3 -3
BITMAP
0180
0180
0ff8
3ffe
3fce
7d80
7980
7180
7180
7180
3980
3f80
1f80
0f80
03e0
01f0
01f8
01bc
019e
018e
018e
018e
019e
c1be
fffc
fff8
1ff0
01c0
0180
0180
ENDCHAR
STARTCHAR percent
ENCODING 37
SWIDTH 669 0
DWIDTH 23 0
BBX 21 25 1 0
BITMAP
1e0078
7f8070
7380f0
e1c1e0
e1c3c0
e1c380
e1c780
e1cf00
e1ce00
739e00
7fbc00
1e7800
0073c0
00f7e0
01ee70
03dc38
039c38
079c38
0f1c38
0e1c38
1e1c38
3c1c38
780e70
7007e0
f003c0
ENDCHAR
STARTCHAR ampersand
ENCODING 38
SWIDTH 697 0
DWIDTH 24 0
BBX 21 25 1 0
BITMAP
00f800
03fe00
03fe00
07cf00
078700
078700
078700
078e00
03fe00
03fc00
0ff800
1fe000
3ef078
78f078
707878
f03c70
f03c70
f01ef0
f00fe0
f807e0
7c03c0
7e0780
3fffc0
1ffce0
07f0f8
ENDCHAR
STARTCHAR apostrophe
ENCODING 39
SWIDTH 229 0
DWIDTH 8 0
BBX 5 10 1 16
BITMAP
f8
f8
f8
f8
38
38
38
30
70
c0
ENDCHAR
STARTCHAR parenleft
ENCODING 40
SWIDTH 325 0
DWIDTH 11 0
BBX 9 32 1 -6
BITMAP
0080
0180
0380
0700
0e00
1c00
1c00
3800
3800
7800
7800
7000
f000
f000
f000
f000
f000
f000
f000
f000
7000
7000
7800
3800
3800
1c00
1c00
0e00
0700
0380
0180
0080
ENDCHAR
STARTCHAR parenright
ENCODING 41
SWIDTH 325 0
DWIDTH 11 0
BBX 9 32 1 -6
BITMAP
8000
c000
e000
7000
3800
1c00
1c00
0e00
0e00
0f00
0f00
0700
0780
0780
0780
0780
0780
0780
0780
0780
0700
0700
0f00
0e00
0e00
1c00
1c00
3800
7000
e000
c000
8000
ENDCHAR
STARTCHAR asterisk
ENCODING 42
SWIDTH 482 0
DWIDTH 16 0
BBX 13 12 2 13
BITMAP
0700
0700
0700
4210
f278
fdf0
0880
0d00
0d80
18c0
38e0
1040
ENDCHAR
STARTCHAR plus
ENCODING 43
SWIDTH 633 0
DWIDTH 21 0
BBX 21 21 0 0
BITMAP
007000
007000
007000
007000
007000
007000
007000
007000
007000
fffff8
fffff8
fffff8
007000
007000
007000
007000
007000
007000
007000
007000
007000
ENDCHAR
STARTCHAR comma
ENCODING 44
SWIDTH 316 0
DWIDTH 11 0
BBX 5 11 3 -6
BITMAP
f8
f8
f8
f8
f8
38
38
38
70
f0
c0
ENDCHAR
STARTCHAR minus
ENCODING 45
SWIDTH 633 0
DWIDTH 21 0
BBX 20 3 1 9
BITMAP
fffff0
fffff0
fffff0
ENDCHAR
STARTCHAR period
ENCODING 46
SWIDTH 316 0
DWIDTH 11 0
BBX 4 4 3 0
BITMAP
f0
f0
f0
f0
ENDCHAR
STARTCHAR slash
ENCODING 47
SWIDTH 494 0
DWIDTH 17 0
BBX 16 32 0 -6
BITMAP
0007
000f
000e
000e
001c
001c
003c
0038
0078
0070
0070
00f0
00e0
01e0
01c0
01c0
0380
0380
0780
0700
0f00
0e00
0e00
1c00
1c00
3c00
3800
3800
7000
7000
f000
e000
ENDCHAR
STARTCHAR zero
ENCODING 48
SWIDTH 633 0
DWIDTH 21 0
BBX 17 25 2 0
BITMAP
03e000
0ff800
1ffc00
3e3e00
3c1e00
780f00
780f00
780f00
f00780
f00780
f00780
f00780
f00780
f00780
f00780
f00780
f00780
780f00
780f00
780f00
3c1e00
3e3e00
1ffc00
0ff800
03e000
ENDCHAR
STARTCHAR one
ENCODING 49
SWIDTH 633 0
DWIDTH 21 0
BBX 8 25 5 0
BITMAP
ff
ff
ff
0f
0f
0f
0f
0f
0f
0f
0f
0f
0f
0f
0f
0f
0f
0f
0f
0f
0f
0f
0f
0f
0f
ENDCHAR
STARTCHAR two
ENCODING 50
SWIDTH 633 0
DWIDTH 21 0
BBX 15 25 3 0
BITMAP
0fc0
7ff0
7ff8
707c
403e
001e
001e
001e
001e
001e
003c
007c
00f8
01f0
03e0
0780
0f00
1e00
3c00
7800
7800
f000
fffe
fffe
fffe
ENDCHAR
STARTCHAR three
ENCODING 51
SWIDTH 633 0
DWIDTH 21 0
BBX 15 25 3 0
BITMAP
3fc0
fff0
fff8
c0fc
007c
003c
003c
003c
0078
00f0
3fe0
3f00
3ff0
00f8
003c
001e
001e
001e
001e
001e
003e
c0fc
fff8
fff0
7fc0
ENDCHAR
STARTCHAR four
ENCODING 52
SWIDTH 633 0
DWIDTH 21 0
BBX 17 25 2 0
BITMAP
003c00
007c00
007c00
00fc00
01fc00
01dc00
03dc00
079c00
071c00
0f1c00
1e1c00
3c1c00
381c00
781c00
f01c00
ffff80
ffff80
ffff80
001c00
001c00
001c00
001c00
001c00
001c00
001c00
ENDCHAR
STARTCHAR five
ENCODING 53
SWIDTH 633 0
DWIDTH 21 0
BBX 13 25 4 0
BITMAP
fff8
fff8
fff8
e000
e000
e000
e000
e000
e000
fe00
ffc0
ffe0
03f0
00f0
00f8
0078
0078
0078
0078
00f8
00f0
83f0
ffe0
ffc0
ff00
ENDCHAR
STARTCHAR six
ENCODING 54
SWIDTH 633 0
DWIDTH 21 0
BBX 17 25 2 0
BITMAP
01fc00
07ff00
0fff00
1f0300
3c0000
7c0000
780000
780000
f00000
f1f800
f3fc00
f7fe00
fe1f00
f80f00
f00780
f00780
f00780
700780
700780
780700
380f00
3e1e00
1ffe00
0ff800
03f000
ENDCHAR
STARTCHAR seven
ENCODING 55
SWIDTH 633 0
DWIDTH 21 0
BBX 16 25 4 0
BITMAP
ffff
ffff
ffff
000f
000e
001e
003c
0038
0078
00f0
00f0
01e0
03c0
03c0
0780
0f80
0f00
1f00
1e00
3e00
3c00
3c00
7c00
7800
7800
ENDCHAR
STARTCHAR eight
ENCODING 56
SWIDTH 633 0
DWIDTH 21 0
BBX 16 25 3 0
BITMAP
03e0
0ff8
1ff8
1c3c
381c
381c
381c
381c
3c38
1e30
0f60
07e0
1ff8
3dfc
787e
783f
f01f
f00f
f00f
f00f
f81f
7c3e
7ffc
1ff8
07e0
ENDCHAR
STARTCHAR nine
ENCODING 57
SWIDTH 633 0
DWIDTH 21 0
BBX 17 25 2 0
BITMAP
07e000
1ff800
3ffc00
7c3e00
780f00
f00f00
f00700
f00780
f00780
f00780
f00780
780f80
7c1f80
3ff780
1fe780
0fc780
000700
000f00
000f00
001e00
001e00
607c00
7ff800
7ff000
1fc000
ENDCHAR
STARTCHAR colon
ENCODING 58
SWIDTH 316 0
DWIDTH 11 0
BBX 4 18 3 0
BITMAP
f0
f0
f0
f0
00
00
00
00
00
00
00
00
00
00
f0
f0
f0
f0
ENDCHAR
STARTCHAR semicolon
ENCODING 59
SWIDTH 316 0
DWIDTH 11 0
BBX 4 24 3 -6
BITMAP
f0
f0
f0
f0
00
00
00
00
00
00
00
00
00
00
00
f0
f0
f0
70
70
70
60
e0
80
ENDCHAR
STARTCHAR less
ENCODING 60
SWIDTH 633 0
DWIDTH 21 0
BBX 20 21 1 0
BITMAP
000010
000070
0001f0
0007f0
001fc0
007f00
01fc00
07f000
1fc000
3f0000
fc0000
3f0000
1fc000
07f000
01fc00
007e00
001f80
0007e0
0001f0
000070
000010
ENDCHAR
STARTCHAR equal
ENCODING 61
SWIDTH 633 0
DWIDTH 21 0
BBX 20 9 1 5
BITMAP
fffff0
fffff0
fffff0
000000
000000
000000
fffff0
fffff0
fffff0
ENDCHAR
STARTCHAR greater
ENCODING 62
SWIDTH 633 0
DWIDTH 21 0
BBX 20 21 1 0
BITMAP
800000
e00000
f80000
7e0000
1f8000
0fe000
03f800
00fe00
003f80
000fc0
0003f0
000fc0
003f80
00fe00
03f800
0fe000
3f8000
fe0000
f80000
e00000
800000
ENDCHAR
STARTCHAR question
ENCODING 63
SWIDTH 422 0
DWIDTH 14 0
BBX 14 25 0 0
BITMAP
3fc0
fff0
fff8
c0fc
007c
003c
003c
003c
0078
00f8
00f0
01e0
03c0
0780
0700
0f00
0f00
0f00
0f00
0000
0000
0f00
0f00
0f00
0f00
ENDCHAR
STARTCHAR at
ENCODING 64
SWIDTH 858 0
DWIDTH 29 0
BBX 27 25 4 0
BITMAP
000fe000
007ffc00
01fffe00
03f01f80
07c00780
0f0003c0
1e07e1c0
3c1fe0e0
383fe0e0
707040e0
70e0c0e0
f0e1c0e0
e0c3c0e0
e1c381c0
e1c6c3c0
e1cee780
e1fcff80
f1f8fe00
70f07c00
78000000
3c000000
1f80c000
0fffc000
07ff8000
00fe0000
ENDCHAR
STARTCHAR A
ENCODING 65
SWIDTH 690 0
DWIDTH 23 0
BBX 23 25 0 0
BITMAP
003c00
007c00
007e00
00fe00
00fe00
00ff00
01ef00
01cf80
03c780
038780
0387c0
0783c0
0703c0
0f01e0
0e01e0
0ffff0
1ffff0
1ffff0
1c00f8
380078
38007c
78003c
70003c
70003e
e0001e
ENDCHAR
STARTCHAR B
ENCODING 66
SWIDTH 575 0
DWIDTH 20 0
BBX 15 25 3 0
BITMAP
ffc0
fff0
fff8
f0fc
f03c
f03c
f03c
f03c
f038
f070
f1e0
ffc0
ffc0
fff0
f0f8
f03c
f03e
f01e
f01e
f01e
f03e
f07c
fffc
fff8
ffe0
ENDCHAR
STARTCHAR C
ENCODING 67
SWIDTH 692 0
DWIDTH 24 0
BBX 20 25 2 0
BITMAP
00ff00
03fff0
0ffff0
1f80f0
3e0010
3c0000
7c0000
780000
f80000
f00000
f00000
f00000
f00000
f00000
f00000
f00000
f80000
780000
7c0000
3c0000
3e0010
1f80f0
0ffff0
03ffe0
00ff00
ENDCHAR
STARTCHAR D
ENCODING 68
SWIDTH 749 0
DWIDTH 25 0
BBX 21 25 3 0
BITMAP
fff800
fffe00
ffff80
f00fc0
f003e0
f001f0
f000f0
f000f0
f000f8
f00078
f00078
f00078
f00078
f00078
f00078
f00078
f00070
f000f0
f000f0
f001e0
f003e0
f00fc0
ffff80
fffe00
fff800
ENDCHAR
STARTCHAR E
ENCODING 69
SWIDTH 542 0
DWIDTH 18 0
BBX 15 25 3 0
BITMAP
fffc
fffc
fffc
f000
f000
f000
f000
f000
f000
f000
f000
fff8
fff8
fff8
f000
f000
f000
f000
f000
f000
f000
f000
fffe
fffe
fffe
ENDCHAR
STARTCHAR F
ENCODING 70
SWIDTH 536 0
DWIDTH 18 0
BBX 14 25 3 0
BITMAP
fffc
fffc
fffc
f000
f000
f000
f000
f000
f000
f000
f000
fff0
fff0
fff0
f000
f000
f000
f000
f000
f000
f000
f000
f000
f000
f000
ENDCHAR
STARTCHAR G
ENCODING 71
SWIDTH 723 0
DWIDTH 25 0
BBX 20 25 2 0
BITMAP
00ff80
03fff0
0ffff0
1f80f0
3e0010
3c0000
7c0000
780000
f80000
f00000
f00000
f00000
f00000
f000f0
f000f0
f000f0
f800f0
7800f0
7800f0
3c00f0
3e00f0
1f80f0
0ffff0
07fff0
00ff80
ENDCHAR
STARTCHAR H
ENCODING 72
SWIDTH 735 0
DWIDTH 25 0
BBX 19 25 3 0
BITMAP
f001e0
f001e0
f001e0
f001e0
f001e0
f001e0
f001e0
f001e0
f001e0
f001e0
ffffe0
ffffe0
ffffe0
f001e0
f001e0
f001e0
f001e0
f001e0
f001e0
f001e0
f001e0
f001e0
f001e0
f001e0
f001e0
ENDCHAR
STARTCHAR I
ENCODING 73
SWIDTH 288 0
DWIDTH 10 0
BBX 4 25 3 0
BITMAP
f0
f0
f0
f0
f0
f0
f0
f0
f0
f0
f0
f0
f0
f0
f0
f0
f0
f0
f0
f0
f0
f0
f0
f0
f0
ENDCHAR
STARTCHAR J
ENCODING 74
SWIDTH 311 0
DWIDTH 11 0
BBX 11 31 -2 -6
BITMAP
01e0
01e0
01e0
01e0
01e0
01e0
01e0
01e0
01e0
01e0
01e0
01e0
01e0
01e0
01e0
01e0
01e0
01e0
01e0
01e0
01e0
01e0
01e0
01e0
01e0
01e0
03c0
83c0
ff80
ff00
fc00
ENDCHAR
STARTCHAR K
ENCODING 75
SWIDTH 653 0
DWIDTH 22 0
BBX 19 25 3 0
BITMAP
f00700
f00e00
f01e00
f03c00
f03800
f07800
f0f000
f1e000
f1c000
f3c000
f78000
ff0000
ff8000
ff8000
f7c000
f3e000
f1f000
f0f800
f0f800
f07c00
f03e00
f01f00
f01f80
f00f80
f007e0
ENDCHAR
STARTCHAR L
ENCODING 76
SWIDTH 533 0
DWIDTH 18 0
BBX 15 25 3 0
BITMAP
f000
f000
f000
f000
f000
f000
f000
f000
f000
f000
f000
f000
f000
f000
f000
f000
f000
f000
f000
f000
f000
f000
fffe
fffe
fffe
ENDCHAR
STARTCHAR M
ENCODING 77
SWIDTH 861 0
DWIDTH 29 0
BBX 23 25 3 0
BITMAP
f8003e
fc003e
fc007e
fc007e
fe00fe
fe00fe
fe00fe
ef01fe
ef01de
ef81de
e7839e
e7839e
e7c39e
e3c71e
e3c71e
e3e71e
e1ee1e
e1ee1e
e1fe1e
e0fc1e
e0fc1e
e0fc1e
e0781e
e0001e
e0001e
ENDCHAR
STARTCHAR N
ENCODING 78
SWIDTH 741 0
DWIDTH 25 0
BBX 19 25 3 0
BITMAP
f000e0
f800e0
f800e0
fc00e0
fe00e0
fe00e0
ff00e0
ef80e0
e780e0
e7c0e0
e3e0e0
e1e0e0
e1f0e0
e0f8e0
e0f8e0
e07ce0
e03ee0
e03ee0
e01fe0
e00fe0
e00fe0
e007e0
e003e0
e003e0
e001e0
ENDCHAR
STARTCHAR O
ENCODING 79
SWIDTH 777 0
DWIDTH 26 0
BBX 23 25 2 0
BITMAP
00fe00
07ffc0
0fffe0
1f83f0
3e00f8
3c0078
78003c
78003c
f8003e
f0001e
f0001e
f0001e
f0001e
f0001e
f0001e
f0001e
f8003e
78003c
78003c
3c0078
3e00f8
1f83f0
0fffe0
07ffc0
00fe00
ENDCHAR
STARTCHAR P
ENCODING 80
SWIDTH 553 0
DWIDTH 19 0
BBX 15 25 3 0
BITMAP
ffe0
fff8
fffc
f07c
f03e
f01e
f01e
f01e
f01e
f03e
f03c
f0fc
fff8
fff0
ffc0
f000
f000
f000
f000
f000
f000
f000
f000
f000
f000
ENDCHAR
STARTCHAR Q
ENCODING 81
SWIDTH 777 0
DWIDTH 26 0
BBX 25 31 2 -6
BITMAP
00fe0000
07ff8000
0fffe000
1f83f000
3e00f800
3c007800
78003c00
78003c00
f8003c00
f0001e00
f0001e00
f0001e00
f0001e00
f0001e00
f0001e00
f0001e00
f8003e00
78003c00
78003c00
3c007c00
3e00f800
1f83f000
0fffe000
07ffc000
00ff8000
0003f000
0001fe00
0000ff80
00003f00
00000f00
00000200
ENDCHAR
STARTCHAR R
ENCODING 82
SWIDTH 633 0
DWIDTH 21 0
BBX 18 25 3 0
BITMAP
ffe000
fff800
fffc00
f07e00
f03e00
f01e00
f01e00
f01e00
f01e00
f03c00
f03c00
f0f800
ffe000
ffc000
ffe000
f1f000
f0f000
f0f800
f07c00
f03e00
f03e00
f01f00
f00f80
f00f80
f007c0
ENDCHAR
STARTCHAR S
ENCODING 83
SWIDTH 539 0
DWIDTH 18 0
BBX 15 25 2 0
BITMAP
0ff0
3ff8
7ff8
7c38
f008
f000
f000
f000
f800
7e00
3f80
1fc0
0ff0
03f8
00fc
007e
003e
001e
001e
001e
803e
f07c
fff8
fff0
3fc0
ENDCHAR
STARTCHAR T
ENCODING 84
SWIDTH 633 0
DWIDTH 21 0
BBX 22 25 0 0
BITMAP
fffffc
fffffc
fffffc
007800
007800
007800
007800
007800
007800
007800
007800
007800
007800
007800
007800
007800
007800
007800
007800
007800
007800
007800
007800
007800
007800
ENDCHAR
STARTCHAR U
ENCODING 85
SWIDTH 693 0
DWIDTH 24 0
BBX 18 25 3 0
BITMAP
f001c0
f001c0
f001c0
f001c0
f001c0
f001c0
f001c0
f001c0
f001c0
f001c0
f001c0
f001c0
f001c0
f001c0
f001c0
f001c0
f001c0
f001c0
f001c0
f803c0
780380
7e0780
3fff00
1ffe00
07f800
ENDCHAR
STARTCHAR V
ENCODING 86
SWIDTH 654 0
DWIDTH 22 0
BBX 21 25 1 0
BITMAP
f00038
f00078
f80070
780070
7800f0
3c00e0
3c00e0
3e01c0
1e01c0
1e01c0
1f0380
0f0380
0f0380
0f8700
078700
078700
03ce00
03ce00
03fe00
01fc00
01fc00
01fc00
00f800
00f800
00f000
ENDCHAR
STARTCHAR W
ENCODING 87
SWIDTH 855 0
DWIDTH 29 0
BBX 29 25 0 0
BITMAP
f0078038
f00f8038
f00f8070
780f8070
780fc070
781fc0f0
781fc0e0
3c1fc0e0
3c1fe0e0
3c1de1e0
3c39e1c0
1e39e1c0
1e39f1c0
1e38f380
1e70f380
0f70f380
0f70fb80
0f707f00
0ff07f00
07e07f00
07e07e00
07e07e00
07e03e00
03c03e00
03c03c00
ENDCHAR
STARTCHAR X
ENCODING 88
SWIDTH 626 0
DWIDTH 21 0
BBX 20 25 0 0
BITMAP
f800f0
7c01e0
3c01c0
3e03c0
1f0780
1f0700
0f8f00
079e00
07dc00
03fc00
01f800
01f000
00f800
01f800
01fc00
03fc00
07be00
071f00
0f0f00
1e0f80
1c07c0
3c07c0
7803e0
7001e0
f001f0
ENDCHAR
STARTCHAR Y
ENCODING 89
SWIDTH 623 0
DWIDTH 21 0
BBX 21 25 0 0
BITMAP
f00078
780070
7c00f0
3c01e0
3e01c0
1e03c0
1f0380
0f8700
078f00
07ce00
03de00
03fc00
01f800
01f800
00f000
00f000
00f000
00f000
00f000
00f000
00f000
00f000
00f000
00f000
00f000
ENDCHAR
STARTCHAR Z
ENCODING 90
SWIDTH 605 0
DWIDTH 21 0
BBX 17 25 2 0
BITMAP
7fff80
7fff80
7fff80
000f80
001f00
001f00
003e00
007c00
007c00
00f800
01f000
01f000
03e000
07c000
07c000
0f8000
1f0000
1f0000
3e0000
7c0000
7c0000
f80000
ffff80
ffff80
ffff80
ENDCHAR
STARTCHAR bracketleft
ENCODING 91
SWIDTH 325 0
DWIDTH 11 0
BBX 7 32 3 -6
BITMAP
fe
fe
fe
e0
e0
e0
e0
e0
e0
e0
e0
e0
e0
e0
e0
e0
e0
e0
e0
e0
e0
e0
e0
e0
e0
e0
e0
e0
e0
fe
fe
fe
ENDCHAR
STARTCHAR backslash
ENCODING 92
SWIDTH 494 0
DWIDTH 17 0
BBX 16 32 0 -6
BITMAP
e000
f000
7000
7000
3800
3800
3c00
1c00
1c00
0e00
0e00
0f00
0700
0780
0380
0380
01c0
01c0
01e0
00e0
00f0
0070
0070
0078
0038
003c
001c
001c
000e
000e
000f
0007
ENDCHAR
STARTCHAR bracketright
ENCODING 93
SWIDTH 325 0
DWIDTH 11 0
BBX 7 32 1 -6
BITMAP
fe
fe
fe
0e
0e
0e
0e
0e
0e
0e
0e
0e
0e
0e
0e
0e
0e
0e
0e
0e
0e
0e
0e
0e
0e
0e
0e
0e
0e
fe
fe
fe
ENDCHAR
STARTCHAR asciicircum
ENCODING 94
SWIDTH 633 0
DWIDTH 21 0
BBX 20 22 1 4
BITMAP
002000
006000
006000
006000
00f000
00f000
01f800
01f800
039c00
039c00
079e00
070e00
0f0f00
0e0700
1e0780
1c0380
3c03c0
3801c0
7801e0
7000e0
f000f0
e00070
ENDCHAR
STARTCHAR underscore
ENCODING 95
SWIDTH 500 0
DWIDTH 17 0
BBX 14 3 2 -4
BITMAP
fffc
fffc
fffc
ENDCHAR
STARTCHAR grave
ENCODING 96
SWIDTH 614 0
DWIDTH 21 0
BBX 7 5 6 21
BITMAP
f0
78
38
1c
0e
ENDCHAR
STARTCHAR a
ENCODING 97
SWIDTH 552 0
DWIDTH 19 0
BBX 17 18 1 0
BITMAP
07f000
3ff800
3ffc00
307c00
203c00
003c00
003c00
07fc00
1ffc00
7ffc00
7c3c00
f83c00
f03c00
f03c00
f87c00
7fff80
7fcf80
1f0780
ENDCHAR
STARTCHAR b
ENCODING 98
SWIDTH 630 0
DWIDTH 21 0
BBX 16 26 3 0
BITMAP
f000
f000
f000
f000
f000
f000
f000
f000
f1f0
f3fc
f7fc
fc3e
f81e
f00f
f00f
f00f
f00f
f00f
f00f
f00f
f01e
f81e
fc3e
fffc
f7f8
e1e0
ENDCHAR
STARTCHAR c
ENCODING 99
SWIDTH 518 0
DWIDTH 17 0
BBX 14 18 2 0
BITMAP
07fc
1ffc
3ffc
7e0c
7c00
7800
f000
f000
f000
f000
f000
f000
7800
7c00
3e04
3ffc
0ffc
07f0
ENDCHAR
STARTCHAR d
ENCODING 100
SWIDTH 630 0
DWIDTH 21 0
BBX 16 26 2 0
BITMAP
000f
000f
000f
000f
000f
000f
000f
000f
078f
1fef
3fff
7c3f
781f
780f
f00f
f00f
f00f
f00f
f00f
f00f
f00f
781f
7c3f
3fef
3fcf
0f8f
ENDCHAR
STARTCHAR e
ENCODING 101
SWIDTH 557 0
DWIDTH 19 0
BBX 15 18 2 0
BITMAP
07e0
1ff0
3ff8
3c3c
781c
701e
f01e
fffe
fffe
fffe
f000
f000
7800
7c00
3e06
1ffe
0ffe
03f8
ENDCHAR
STARTCHAR f
ENCODING 102
SWIDTH 367 0
DWIDTH 12 0
BBX 13 27 1 0
BITMAP
03f0
07f8
0ff8
0f08
1e00
1e00
1e00
1e00
1e00
ffe0
ffe0
ffe0
1e00
1e00
1e00
1e00
1e00
1e00
1e00
1e00
1e00
1e00
1e00
1e00
1e00
1e00
1e00
ENDCHAR
STARTCHAR g
ENCODING 103
SWIDTH 623 0
DWIDTH 21 0
BBX 16 25 2 -7
BITMAP
078f
1fef
3fff
7c3f
781f
780f
f00f
f00f
f00f
f00f
f00f
f00f
f00f
781f
7c3f
3fef
1fcf
0f8f
000f
000e
001e
203e
3ffc
7ff8
1fe0
ENDCHAR
STARTCHAR h
ENCODING 104
SWIDTH 620 0
DWIDTH 21 0
BBX 15 26 3 0
BITMAP
f000
f000
f000
f000
f000
f000
f000
f000
f0f0
f3fc
f7fc
fe3e
fc1e
f81e
f01e
f01e
f01e
f01e
f01e
f01e
f01e
f01e
f01e
f01e
f01e
f01e
ENDCHAR
STARTCHAR i
ENCODING 105
SWIDTH 289 0
DWIDTH 10 0
BBX 4 25 3 0
BITMAP
f0
f0
f0
f0
00
00
00
f0
f0
f0
f0
f0
f0
f0
f0
f0
f0
f0
f0
f0
f0
f0
f0
f0
f0
ENDCHAR
STARTCHAR j
ENCODING 106
SWIDTH 304 0
DWIDTH 10 0
BBX 10 32 -2 -7
BITMAP
03c0
03c0
03c0
03c0
0000
0000
0000
03c0
03c0
03c0
03c0
03c0
03c0
03c0
03c0
03c0
03c0
03c0
03c0
03c0
03c0
03c0
03c0
03c0
03c0
03c0
03c0
03c0
8780
ff80
ff00
7e00
ENDCHAR
STARTCHAR k
ENCODING 107
SWIDTH 585 0
DWIDTH 20 0
BBX 18 26 3 0
BITMAP
f00000
f00000
f00000
f00000
f00000
f00000
f00000
f00000
f01e00
f03c00
f07800
f07000
f0f000
f1e000
f3c000
f78000
ff8000
ffc000
f7e000
f3f000
f1f000
f0f800
f07c00
f03e00
f01f00
f00fc0
ENDCHAR
STARTCHAR l
ENCODING 108
SWIDTH 289 0
DWIDTH 10 0
BBX 4 26 3 0
BITMAP
f0
f0
f0
f0
f0
f0
f0
f0
f0
f0
f0
f0
f0
f0
f0
f0
f0
f0
f0
f0
f0
f0
f0
f0
f0
f0
ENDCHAR
STARTCHAR m
ENCODING 109
SWIDTH 934 0
DWIDTH 32 0
BBX 26 18 3 0
BITMAP
f0f81e00
f3fc7f80
f7fcff80
fe3fc7c0
fc1f83c0
f81f03c0
f01e03c0
f01e03c0
f01e03c0
f01e03c0
f01e03c0
f01e03c0
f01e03c0
f01e03c0
f01e03c0
f01e03c0
f01e03c0
f01e03c0
ENDCHAR
STARTCHAR n
ENCODING 110
SWIDTH 620 0
DWIDTH 21 0
BBX 15 18 3 0
BITMAP
f0f0
f3fc
f7fc
fe3e
fc1e
f81e
f01e
f01e
f01e
f01e
f01e
f01e
f01e
f01e
f01e
f01e
f01e
f01e
ENDCHAR
STARTCHAR o
ENCODING 111
SWIDTH 614 0
DWIDTH 21 0
BBX 17 18 2 0
BITMAP
07f000
1ffc00
3ffe00
7c1f00
780f00
780f00
f00780
f00780
f00780
f00780
f00780
f00780
780f00
780f00
7c1f00
3ffe00
1ffc00
07f000
ENDCHAR
STARTCHAR p
ENCODING 112
SWIDTH 630 0
DWIDTH 21 0
BBX 16 25 3 -7
BITMAP
f1f0
f3fc
f7fc
fc3e
f81e
f00f
f00f
f00f
f00f
f00f
f00f
f00f
f01e
f81e
fc3e
fffc
f7f8
f1e0
f000
f000
f000
f000
f000
f000
f000
ENDCHAR
STARTCHAR q
ENCODING 113
SWIDTH 630 0
DWIDTH 21 0
BBX 16 25 2 -7
BITMAP
078f
1fef
3fff
7c3f
781f
780f
f00f
f00f
f00f
f00f
f00f
f00f
f00f
781f
7c3f
3fef
3fcf
0f8f
000f
000f
000f
000f
000f
000f
000f
ENDCHAR
STARTCHAR r
ENCODING 114
SWIDTH 409 0
DWIDTH 14 0
BBX 11 18 3 0
BITMAP
f0e0
f3e0
f7e0
fe00
fc00
f800
f000
f000
f000
f000
f000
f000
f000
f000
f000
f000
f000
f000
ENDCHAR
STARTCHAR s
ENCODING 115
SWIDTH 510 0
DWIDTH 17 0
BBX 12 18 3 0
BITMAP
1fe0
7fe0
7fe0
f860
f000
f000
fc00
7f00
7fc0
1fe0
07f0
01f0
00f0
80f0
e1f0
ffe0
ffc0
3f80
ENDCHAR
STARTCHAR t
ENCODING 116
SWIDTH 374 0
DWIDTH 13 0
BBX 11 23 1 0
BITMAP
3c00
3c00
3c00
3c00
3c00
ffe0
ffe0
ffe0
3c00
3c00
3c00
3c00
3c00
3c00
3c00
3c00
3c00
3c00
3c00
3e00
1fe0
1fe0
07e0
ENDCHAR
STARTCHAR u
ENCODING 117
SWIDTH 620 0
DWIDTH 21 0
BBX 15 18 3 0
BITMAP
f01e
f01e
f01e
f01e
f01e
f01e
f01e
f01e
f01e
f01e
f01e
f01e
f03e
f07e
f8fe
7fde
7f9e
1e1e
ENDCHAR
STARTCHAR v
ENCODING 118
SWIDTH 572 0
DWIDTH 18 0
BBX 17 18 0 0
BITMAP
f00380
f00780
f80700
780f00
780e00
3c0e00
3c1e00
3e1c00
1e1c00
1e3800
1f3800
0f7800
0f7000
0ff000
07e000
07e000
03e000
03c000
ENDCHAR
STARTCHAR w
ENCODING 119
SWIDTH 840 0
DWIDTH 26 0
BBX 26 18 0 0
BITMAP
e01e01c0
f01e03c0
703f0380
703f0380
703f0780
383f0700
38738700
38738f00
3c738e00
1ce38e00
1ce1de00
1ce1dc00
0fe1dc00
0fc1fc00
0fc0f800
0fc0f800
0780f800
0780f000
ENDCHAR
STARTCHAR x
ENCODING 120
SWIDTH 613 0
DWIDTH 21 0
BBX 18 18 1 0
BITMAP
f003c0
780780
3c0f00
1e0e00
0f1e00
073c00
07b800
03f800
01f000
03e000
07f000
077800
0f3c00
1e1c00
3c1e00
380f00
780780
f003c0
ENDCHAR
STARTCHAR y
ENCODING 121
SWIDTH 568 0
DWIDTH 18 0
BBX 17 25 0 -7
BITMAP
f00380
f80700
780700
780700
7c0e00
3c0e00
3c1e00
3e1c00
1e1c00
1e3800
1f3800
0f7800
0f7000
07f000
07e000
07e000
03e000
03c000
03c000
03c000
038000
078000
070000
070000
0f0000
ENDCHAR
STARTCHAR z
ENCODING 122
SWIDTH 573 0
DWIDTH 19 0
BBX 15 18 2 0
BITMAP
7ffe
7ffe
7ffe
003c
0078
00f0
00f0
01e0
03c0
0780
0f00
1e00
3c00
3c00
7800
fffe
fffe
fffe
ENDCHAR
STARTCHAR braceleft
ENCODING 123
SWIDTH 325 0
DWIDTH 11 0
BBX 8 32 1 -6
BITMAP
07
1f
1f
3c
38
38
38
3c
3c
1c
1c
1c
1c
18
38
f0
f0
f8
38
1c
1c
1c
1c
1c
3c
38
38
38
3c
1f
0f
07
ENDCHAR
STARTCHAR bar
ENCODING 124
SWIDTH 265 0
DWIDTH 9 0
BBX 3 32 3 -6
BITMAP
e0
e0
e0
e0
e0
e0
e0
e0
e0
e0
e0
e0
e0
e0
e0
e0
e0
e0
e0
e0
e0
e0
e0
e0
e0
e0
e0
e0
e0
e0
e0
e0
ENDCHAR
STARTCHAR braceright
ENCODING 125
SWIDTH 325 0
DWIDTH 11 0
BBX 8 32 2 -6
BITMAP
e0
f0
f8
3c
1c
1c
1c
3c
38
38
38
38
38
1c
1f
0f
0f
1c
18
38
38
38
38
3c
3c
1c
1c
1c
3c
f8
f8
e0
ENDCHAR
STARTCHAR asciitilde
ENCODING 126
SWIDTH 633 0
DWIDTH 21 0
BBX 20 7 1 6
BITMAP
1f0000
3fc070
7fe070
f1f8e0
e07fe0
e01fc0
000f80
ENDCHAR
STARTCHAR nobreakspace
ENCODING 160
SWIDTH 316 0
DWIDTH 11 0
BBX 1 1 0 0
BITMAP
00
ENDCHAR
STARTCHAR Aogonek
ENCODING 161
SWIDTH 690 0
DWIDTH 23 0
BBX 23 30 0 -5
BITMAP
003c00
007c00
007e00
00fe00
00fe00
00ff00
01ef00
01cf80
03c780
038780
0387c0
0783c0
0703c0
0f01e0
0e01e0
0ffff0
1ffff0
1ffff0
1c00f8
380078
38007c
78003c
70003c
70003e
e0001e
001c00
007000
007000
007a00
003e00
ENDCHAR
STARTCHAR breve
ENCODING 162
SWIDTH 614 0
DWIDTH 21 0
BBX 11 5 5 21
BITMAP
c060
e0e0
7fc0
3f80
1f00
ENDCHAR
STARTCHAR Lstroke
ENCODING 163
SWIDTH 533 0
DWIDTH 18 0
BBX 19 25 0 0
BITMAP
0f0000
0f0000
0f0000
0f0000
0f0000
0f0000
0f0000
0f0000
0f3000
0ff000
0ff000
0fc000
3f0000
ff0000
ff0000
cf0000
0f0000
0f0000
0f0000
0f0000
0f0000
0f0000
0fffe0
0fffe0
0fffe0
ENDCHAR
STARTCHAR currency
ENCODING 164
SWIDTH 633 0
DWIDTH 21 0
BBX 19 21 1 2
BITMAP
6000c0
e000e0
f1f1e0
7bfbc0
3fff80
1f1f00
1c0700
1c0700
380380
380380
380380
380380
380380
1c0700
1c0700
1e0f00
3fff80
7bfbc0
f1f1e0
e000e0
6000c0
ENDCHAR
STARTCHAR Lcaron
ENCODING 165
SWIDTH 533 0
DWIDTH 18 0
BBX 15 28 3 0
BITMAP
07c0
07c0
07c0
f7c0
f1c0
f1c0
f1c0
f180
f380
f600
f000
f000
f000
f000
f000
f000
f000
f000
f000
f000
f000
f000
f000
f000
f000
fffe
fffe
fffe
ENDCHAR
STARTCHAR Sacute
ENCODING 166
SWIDTH 539 0
DWIDTH 18 0
BBX 15 31 2 0
BITMAP
00f0
01e0
01c0
0380
0700
0000
0ff0
3ff8
7ff8
7c38
f008
f000
f000
f000
f800
7e00
3f80
1fc0
0ff0
03f8
00fc
007e
003e
001e
001e
001e
803e
f07c
fff8
fff0
3fc0
ENDCHAR
STARTCHAR section
ENCODING 167
SWIDTH 633 0
DWIDTH 21 0
BBX 14 32 4 -7
BITMAP
0fe0
3ff8
7ff8
7818
f000
e000
e000
f000
f800
7e00
3fc0
7fe0
77f8
e1f8
e07c
e03c
f01c
f81c
7e1c
7ff8
3ff0
0fe0
03f0
0078
003c
001c
001c
803c
e07c
fff8
fff0
1fc0
ENDCHAR
STARTCHAR diaeresis
ENCODING 168
SWIDTH 614 0
DWIDTH 21 0
BBX 9 3 6 22
BITMAP
e380
e380
e380
ENDCHAR
STARTCHAR Scaron
ENCODING 169
SWIDTH 539 0
DWIDTH 18 0
BBX 15 31 2 0
BITMAP
7070
38e0
1dc0
0f80
0f80
0000
0ff0
3ff8
7ff8
7c38
f008
f000
f000
f000
f800
7e00
3f80
1fc0
0ff0
03f8
00fc
007e
003e
001e
001e
001e
803e
f07c
fff8
fff0
3fc0
ENDCHAR
STARTCHAR Scedilla
ENCODING 170
SWIDTH 539 0
DWIDTH 18 0
BBX 15 33 2 -8
BITMAP
0ff0
3ff8
7ff8
7c38
f008
f000
f000
f000
f800
7e00
3f80
1fc0
0ff0
03f8
00fc
007e
003e
001e
001e
001e
803e
f07c
fff8
fff0
3fc0
0180
0300
0300
01c0
01c0
01c0
07c0
0780
ENDCHAR
STARTCHAR Tcaron
ENCODING 171
SWIDTH 633 0
DWIDTH 21 0
BBX 22 31 0 0
BITMAP
070700
038e00
01dc00
00f800
00f800
000000
fffffc
fffffc
fffffc
007800
007800
007800
007800
007800
007800
007800
007800
007800
007800
007800
007800
007800
007800
007800
007800
007800
007800
007800
007800
007800
007800
ENDCHAR
STARTCHAR Zacute
ENCODING 172
SWIDTH 605 0
DWIDTH 21 0
BBX 17 31 2 0
BITMAP
003c00
007800
007000
00e000
01c000
000000
7fff80
7fff80
7fff80
000f80
001f00
001f00
003e00
007c00
007c00
00f800
01f000
01f000
03e000
07c000
07c000
0f8000
1f0000
1f0000
3e0000
7c0000
7c0000
f80000
ffff80
ffff80
ffff80
ENDCHAR
STARTCHAR hyphen
ENCODING 173
SWIDTH 325 0
DWIDTH 11 0
BBX 7 3 2 9
BITMAP
fe
fe
fe
ENDCHAR
STARTCHAR Zcaron
ENCODING 174
SWIDTH 605 0
DWIDTH 21 0
BBX 17 31 2 0
BITMAP
1c1c00
0e3800
077000
03e000
03e000
000000
7fff80
7fff80
7fff80
000f80
001f00
001f00
003e00
007c00
007c00
00f800
01f000
01f000
03e000
07c000
07c000
0f8000
1f0000
1f0000
3e0000
7c0000
7c0000
f80000
ffff80
ffff80
ffff80
ENDCHAR
STARTCHAR Zabovedot
ENCODING 175
SWIDTH 605 0
DWIDTH 21 0
BBX 17 30 2 0
BITMAP
01c000
01c000
01c000
01c000
000000
7fff80
7fff80
7fff80
000f80
001f00
001f00
003e00
007c00
007c00
00f800
01f000
01f000
03e000
07c000
07c000
0f8000
1f0000
1f0000
3e0000
7c0000
7c0000
f80000
ffff80
ffff80
ffff80
ENDCHAR
STARTCHAR degree
ENCODING 176
SWIDTH 277 0
DWIDTH 9 0
BBX 6 6 2 19
BITMAP
78
fc
cc
cc
fc
78
ENDCHAR
STARTCHAR aogonek
ENCODING 177
SWIDTH 552 0
DWIDTH 19 0
BBX 17 23 1 -5
BITMAP
07f000
3ff800
3ffc00
307c00
203c00
003c00
003c00
07fc00
1ffc00
7ffc00
7c3c00
f83c00
f03c00
f03c00
f87c00
7fff80
7fcf80
1f0780
00e000
038000
038000
03d000
01f000
ENDCHAR
STARTCHAR ogonek
ENCODING 178
SWIDTH 614 0
DWIDTH 21 0
BBX 6 5 8 -6
BITMAP
38
e0
e0
f4
7c
ENDCHAR
STARTCHAR lstroke
ENCODING 179
SWIDTH 289 0
DWIDTH 10 0
BBX 12 26 0 0
BITMAP
0f00
0f00
0f00
0f00
0f00
0f00
0f00
0f00
0f10
0f70
0ff0
0fe0
1f00
7f00
ff00
cf00
8f00
0f00
0f00
0f00
0f00
0f00
0f00
0f00
0f00
0f00
ENDCHAR
STARTCHAR acute
ENCODING 180
SWIDTH 614 0
DWIDTH 21 0
BBX 7 5 8 21
BITMAP
1e
3c
38
70
e0
ENDCHAR
STARTCHAR lcaron
ENCODING 181
SWIDTH 480 0
DWIDTH 16 0
BBX 10 29 3 0
BITMAP
07c0
07c0
07c0
f7c0
f1c0
f1c0
f1c0
f180
f380
f600
f000
f000
f000
f000
f000
f000
f000
f000
f000
f000
f000
f000
f000
f000
f000
f000
f000
f000
f000
ENDCHAR
STARTCHAR sacute
ENCODING 182
SWIDTH 510 0
DWIDTH 17 0
BBX 12 24 3 0
BITMAP
01e0
03c0
0380
0700
0e00
0000
1fe0
7fe0
7fe0
f860
f000
f000
fc00
7f00
7fc0
1fe0
07f0
01f0
00f0
80f0
e1f0
ffe0
ffc0
3f80
ENDCHAR
STARTCHAR caron
ENCODING 183
SWIDTH 614 0
DWIDTH 21 0
BBX 11 5 5 21
BITMAP
e0e0
71c0
3b80
1f00
1f00
ENDCHAR
STARTCHAR cedilla
ENCODING 184
SWIDTH 614 0
DWIDTH 21 0
BBX 5 8 9 -7
BITMAP
30
60
60
38
38
38
f8
f0
ENDCHAR
STARTCHAR scaron
ENCODING 185
SWIDTH 510 0
DWIDTH 17 0
BBX 12 24 3 0
BITMAP
e0e0
71c0
3b80
1f00
1f00
0000
1fe0
7fe0
7fe0
f860
f000
f000
fc00
7f00
7fc0
1fe0
07f0
01f0
00f0
80f0
e1f0
ffe0
ffc0
3f80
ENDCHAR
STARTCHAR scedilla
ENCODING 186
SWIDTH 510 0
DWIDTH 17 0
BBX 12 26 3 -8
BITMAP
1fe0
7fe0
7fe0
f860
f000
f000
fc00
7f00
7fc0
1fe0
07f0
01f0
00f0
80f0
e1f0
ffe0
ffc0
3f80
0600
0c00
0c00
0700
0700
0700
1f00
1e00
ENDCHAR
STARTCHAR tcaron
ENCODING 187
SWIDTH 420 0
DWIDTH 14 0
BBX 12 29 1 0
BITMAP
01f0
01f0
01f0
01f0
0070
0070
3c70
3c60
3ce0
3d80
3c00
ffe0
ffe0
ffe0
3c00
3c00
3c00
3c00
3c00
3c00
3c00
3c00
3c00
3c00
3c00
3e00
1fe0
1fe0
07e0
ENDCHAR
STARTCHAR zacute
ENCODING 188
SWIDTH 573 0
DWIDTH 19 0
BBX 15 24 2 0
BITMAP
0078
00f0
00e0
01c0
0380
0000
7ffe
7ffe
7ffe
003c
0078
00f0
00f0
01e0
03c0
0780
0f00
1e00
3c00
3c00
7800
fffe
fffe
fffe
ENDCHAR
STARTCHAR doubleacute
ENCODING 189
SWIDTH 614 0
DWIDTH 21 0
BBX 10 5 7 21
BITMAP
1dc0
1b80
3300
6600
cc00
ENDCHAR
STARTCHAR zcaron
ENCODING 190
SWIDTH 573 0
DWIDTH 19 0
BBX 15 24 2 0
BITMAP
3838
1c70
0ee0
07c0
07c0
0000
7ffe
7ffe
7ffe
003c
0078
00f0
00f0
01e0
03c0
0780
0f00
1e00
3c00
3c00
7800
fffe
fffe
fffe
ENDCHAR
STARTCHAR zabovedot
ENCODING 191
SWIDTH 573 0
DWIDTH 19 0
BBX 15 23 2 0
BITMAP
0380
0380
0380
0380
0000
7ffe
7ffe
7ffe
003c
0078
00f0
00f0
01e0
03c0
0780
0f00
1e00
3c00
3c00
7800
fffe
fffe
fffe
ENDCHAR
STARTCHAR Racute
ENCODING 192
SWIDTH 633 0
DWIDTH 21 0
BBX 18 31 3 0
BITMAP
00f000
01e000
01c000
038000
070000
000000
ffe000
fff800
fffc00
f07e00
f03e00
f01e00
f01e00
f01e00
f01e00
f03c00
f03c00
f0f800
ffe000
ffc000
ffe000
f1f000
f0f000
f0f800
f07c00
f03e00
f03e00
f01f00
f00f80
f00f80
f007c0
ENDCHAR
STARTCHAR Aacute
ENCODING 193
SWIDTH 690 0
DWIDTH 23 0
BBX 23 32 0 0
BITMAP
000f00
001e00
001c00
003800
007000
000000
000000
003c00
007c00
007e00
00fe00
00fe00
00ff00
01ef00
01cf80
03c780
038780
0387c0
0783c0
0703c0
0f01e0
0e01e0
0ffff0
1ffff0
1ffff0
1c00f8
380078
38007c
78003c
70003c
70003e
e0001e
ENDCHAR
STARTCHAR Acircumflex
ENCODING 194
SWIDTH 690 0
DWIDTH 23 0
BBX 23 32 0 0
BITMAP
007c00
007c00
00ee00
01c700
038380
000000
000000
003c00
007c00
007e00
00fe00
00fe00
00ff00
01ef00
01cf80
03c780
038780
0387c0
0783c0
0703c0
0f01e0
0e01e0
0ffff0
1ffff0
1ffff0
1c00f8
380078
38007c
78003c
70003c
70003e
e0001e
ENDCHAR
STARTCHAR Abreve
ENCODING 195
SWIDTH 690 0
DWIDTH 23 0
BBX 23 31 0 0
BITMAP
030180
038380
01ff00
00fe00
007c00
000000
003c00
007c00
007e00
00fe00
00fe00
00ff00
01ef00
01cf80
03c780
038780
0387c0
0783c0
0703c0
0f01e0
0e01e0
0ffff0
1ffff0
1ffff0
1c00f8
380078
38007c
78003c
70003c
70003e
e0001e
ENDCHAR
STARTCHAR Adiaeresis
ENCODING 196
SWIDTH 690 0
DWIDTH 23 0
BBX 23 30 0 0
BITMAP
01c700
01c700
01c700
000000
000000
003c00
007c00
007e00
00fe00
00fe00
00ff00
01ef00
01cf80
03c780
038780
0387c0
0783c0
0703c0
0f01e0
0e01e0
0ffff0
1ffff0
1ffff0
1c00f8
380078
38007c
78003c
70003c
70003e
e0001e
ENDCHAR
STARTCHAR Lacute
ENCODING 197
SWIDTH 533 0
DWIDTH 18 0
BBX 15 31 3 0
BITMAP
1e00
3c00
3800
7000
e000
0000
f000
f000
f000
f000
f000
f000
f000
f000
f000
f000
f000
f000
f000
f000
f000
f000
f000
f000
f000
f000
f000
f000
fffe
fffe
fffe
ENDCHAR
STARTCHAR Cacute
ENCODING 198
SWIDTH 692 0
DWIDTH 24 0
BBX 20 31 2 0
BITMAP
000780
000f00
000e00
001c00
003800
000000
00ff00
03fff0
0ffff0
1f80f0
3e0010
3c0000
7c0000
780000
f80000
f00000
f00000
f00000
f00000
f00000
f00000
f00000
f80000
780000
7c0000
3c0000
3e0010
1f80f0
0ffff0
03ffe0
00ff00
ENDCHAR
STARTCHAR Ccedilla
ENCODING 199
SWIDTH 692 0
DWIDTH 24 0
BBX 20 32 2 -7
BITMAP
00ff00
03fff0
0ffff0
1f80f0
3e0010
3c0000
7c0000
780000
f80000
f00000
f00000
f00000
f00000
f00000
f00000
f00000
f80000
780000
7c0000
3c0000
3e0010
1f80f0
0ffff0
03ffe0
00ff00
006000
006000
003800
003800
003800
00f800
00f000
ENDCHAR
STARTCHAR Ccaron
ENCODING 200
SWIDTH 692 0
DWIDTH 24 0
BBX 20 31 2 0
BITMAP
038380
01c700
00ee00
007c00
007c00
000000
00ff00
03fff0
0ffff0
1f80f0
3e0010
3c0000
7c0000
780000
f80000
f00000
f00000
f00000
f00000
f00000
f00000
f00000
f80000
780000
7c0000
3c0000
3e0010
1f80f0
0ffff0
03ffe0
00ff00
ENDCHAR
STARTCHAR Eacute
ENCODING 201
SWIDTH 542 0
DWIDTH 18 0
BBX 15 32 3 0
BITMAP
01e0
03c0
0380
0700
0e00
0000
0000
fffc
fffc
fffc
f000
f000
f000
f000
f000
f000
f000
f000
fff8
fff8
fff8
f000
f000
f000
f000
f000
f000
f000
f000
fffe
fffe
fffe
ENDCHAR
STARTCHAR Eogonek
ENCODING 202
SWIDTH 542 0
DWIDTH 18 0
BBX 15 30 3 -5
BITMAP
fffc
fffc
fffc
f000
f000
f000
f000
f000
f000
f000
f000
fff8
fff8
fff8
f000
f000
f000
f000
f000
f000
f000
f000
fffe
fffe
fffe
01c0
0700
0700
07a0
03e0
ENDCHAR
STARTCHAR Ediaeresis
ENCODING 203
SWIDTH 542 0
DWIDTH 18 0
BBX 15 30 3 0
BITMAP
38e0
38e0
38e0
0000
0000
fffc
fffc
fffc
f000
f000
f000
f000
f000
f000
f000
f000
fff8
fff8
fff8
f000
f000
f000
f000
f000
f000
f000
f000
fffe
fffe
fffe
ENDCHAR
STARTCHAR Ecaron
ENCODING 204
SWIDTH 542 0
DWIDTH 18 0
BBX 15 31 3 0
BITMAP
7070
38e0
1dc0
0f80
0f80
0000
fffc
fffc
fffc
f000
f000
f000
f000
f000
f000
f000
f000
fff8
fff8
fff8
f000
f000
f000
f000
f000
f000
f000
f000
fffe
fffe
fffe
ENDCHAR
STARTCHAR Iacute
ENCODING 205
SWIDTH 288 0
DWIDTH 10 0
BBX 7 32 4 0
BITMAP
1e
3c
38
70
e0
00
00
78
78
78
78
78
78
78
78
78
78
78
78
78
78
78
78
78
78
78
78
78
78
78
78
78
ENDCHAR
STARTCHAR Icircumflex
ENCODING 206
SWIDTH 288 0
DWIDTH 10 0
BBX 11 32 6 0
BITMAP
1f00
1f00
3b80
71c0
e0e0
0000
0000
1e00
1e00
1e00
1e00
1e00
1e00
1e00
1e00
1e00
1e00
1e00
1e00
1e00
1e00
1e00
1e00
1e00
1e00
1e00
1e00
1e00
1e00
1e00
1e00
1e00
ENDCHAR
STARTCHAR Dcaron
ENCODING 207
SWIDTH 749 0
DWIDTH 25 0
BBX 21 31 3 0
BITMAP
1c1c00
0e3800
077000
03e000
03e000
000000
fff800
fffe00
ffff80
f00fc0
f003e0
f001f0
f000f0
f000f0
f000f8
f00078
f00078
f00078
f00078
f00078
f00078
f00078
f00070
f000f0
f000f0
f001e0
f003e0
f00fc0
ffff80
fffe00
fff800
ENDCHAR
STARTCHAR Dstroke
ENCODING 208
SWIDTH 749 0
DWIDTH 25 0
BBX 25 25 0 0
BITMAP
0fff8000
0fffe000
0ffff800
0f00fc00
0f003e00
0f001f00
0f000f00
0f000f00
0f000f80
0f000780
0f000780
fffc0780
fffc0780
fffc0780
0f000780
0f000780
0f000700
0f000f00
0f000f00
0f001e00
0f003e00
0f00fc00
0ffff800
0fffe000
0fff8000
ENDCHAR
STARTCHAR Nacute
ENCODING 209
SWIDTH 741 0
DWIDTH 25 0
BBX 19 31 3 0
BITMAP
001e00
003c00
003800
007000
00e000
000000
f000e0
f800e0
f800e0
fc00e0
fe00e0
fe00e0
ff00e0
ef80e0
e780e0
e7c0e0
e3e0e0
e1e0e0
e1f0e0
e0f8e0
e0f8e0
e07ce0
e03ee0
e03ee0
e01fe0
e00fe0
e00fe0
e007e0
e003e0
e003e0
e001e0
ENDCHAR
STARTCHAR Ncaron
ENCODING 210
SWIDTH 741 0
DWIDTH 25 0
BBX 19 31 3 0
BITMAP
0e0e00
071c00
03b800
01f000
01f000
000000
f000e0
f800e0
f800e0
fc00e0
fe00e0
fe00e0
ff00e0
ef80e0
e780e0
e7c0e0
e3e0e0
e1e0e0
e1f0e0
e0f8e0
e0f8e0
e07ce0
e03ee0
e03ee0
e01fe0
e00fe0
e00fe0
e007e0
e003e0
e003e0
e001e0
ENDCHAR
STARTCHAR Oacute
ENCODING 211
SWIDTH 777 0
DWIDTH 26 0
BBX 23 32 2 0
BITMAP
000f00
001e00
001c00
003800
007000
000000
000000
00fe00
07ffc0
0fffe0
1f83f0
3e00f8
3c0078
78003c
78003c
f8003e
f0001e
f0001e
f0001e
f0001e
f0001e
f0001e
f0001e
f8003e
78003c
78003c
3c0078
3e00f8
1f83f0
0fffe0
07ffc0
00fe00
ENDCHAR
STARTCHAR Ocircumflex
ENCODING 212
SWIDTH 777 0
DWIDTH 26 0
BBX 23 32 2 0
BITMAP
007c00
007c00
00ee00
01c700
038380
000000
000000
00fe00
07ffc0
0fffe0
1f83f0
3e00f8
3c0078
78003c
78003c
f8003e
f0001e
f0001e
f0001e
f0001e
f0001e
f0001e
f0001e
f8003e
78003c
78003c
3c0078
3e00f8
1f83f0
0fffe0
07ffc0
00fe00
ENDCHAR
STARTCHAR Odoubleacute
ENCODING 213
SWIDTH 777 0
DWIDTH 26 0
BBX 23 31 2 0
BITMAP
000ee0
000dc0
001980
003300
006600
000000
00fe00
07ffc0
0fffe0
1f83f0
3e00f8
3c0078
78003c
78003c
f8003e
f0001e
f0001e
f0001e
f0001e
f0001e
f0001e
f0001e
f8003e
78003c
78003c
3c0078
3e00f8
1f83f0
0fffe0
07ffc0
00fe00
ENDCHAR
STARTCHAR Odiaeresis
ENCODING 214
SWIDTH 777 0
DWIDTH 26 0
BBX 23 30 2 0
BITMAP
01c700
01c700
01c700
000000
000000
00fe00
07ffc0
0fffe0
1f83f0
3e00f8
3c0078
78003c
78003c
f8003e
f0001e
f0001e
f0001e
f0001e
f0001e
f0001e
f0001e
f8003e
78003c
78003c
3c0078
3e00f8
1f83f0
0fffe0
07ffc0
00fe00
ENDCHAR
STARTCHAR multiply
ENCODING 215
SWIDTH 633 0
DWIDTH 21 0
BBX 20 21 1 0
BITMAP
600060
e00070
f000f0
7801e0
3c03c0
1e0780
0f0f00
079e00
03fc00
01f800
00f000
01f800
03fc00
079e00
0f0f00
1e0780
3c03c0
7801e0
f000f0
e00070
600060
ENDCHAR
STARTCHAR Rcaron
ENCODING 216
SWIDTH 633 0
DWIDTH 21 0
BBX 18 31 3 0
BITMAP
707000
38e000
1dc000
0f8000
0f8000
000000
ffe000
fff800
fffc00
f07e00
f03e00
f01e00
f01e00
f01e00
f01e00
f03c00
f03c00
f0f800
ffe000
ffc000
ffe000
f1f000
f0f000
f0f800
f07c00
f03e00
f03e00
f01f00
f00f80
f00f80
f007c0
ENDCHAR
STARTCHAR Uring
ENCODING 217
SWIDTH 693 0
DWIDTH 24 0
BBX 18 31 3 0
BITMAP
01c000
036000
022000
036000
01c000
000000
f001c0
f001c0
f001c0
f001c0
f001c0
f001c0
f001c0
f001c0
f001c0
f001c0
f001c0
f001c0
f001c0
f001c0
f001c0
f001c0
f001c0
f001c0
f001c0
f803c0
780380
7e0780
3fff00
1ffe00
07f800
ENDCHAR
STARTCHAR Uacute
ENCODING 218
SWIDTH 693 0
DWIDTH 24 0
BBX 18 32 3 0
BITMAP
007800
00f000
00e000
01c000
038000
000000
000000
f001c0
f001c0
f001c0
f001c0
f001c0
f001c0
f001c0
f001c0
f001c0
f001c0
f001c0
f001c0
f001c0
f001c0
f001c0
f001c0
f001c0
f001c0
f001c0
f803c0
780380
7e0780
3fff00
1ffe00
07f800
ENDCHAR
STARTCHAR Udoubleacute
ENCODING 219
SWIDTH 693 0
DWIDTH 24 0
BBX 18 31 3 0
BITMAP
007700
006e00
00cc00
019800
033000
000000
f001c0
f001c0
f001c0
f001c0
f001c0
f001c0
f001c0
f001c0
f001c0
f001c0
f001c0
f001c0
f001c0
f001c0
f001c0
f001c0
f001c0
f001c0
f001c0
f803c0
780380
7e0780
3fff00
1ffe00
07f800
ENDCHAR
STARTCHAR Udiaeresis
ENCODING 220
SWIDTH 693 0
DWIDTH 24 0
BBX 18 30 3 0
BITMAP
0e3800
0e3800
0e3800
000000
000000
f001c0
f001c0
f001c0
f001c0
f001c0
f001c0
f001c0
f001c0
f001c0
f001c0
f001c0
f001c0
f001c0
f001c0
f001c0
f001c0
f001c0
f001c0
f001c0
f803c0
780380
7e0780
3fff00
1ffe00
07f800
ENDCHAR
STARTCHAR Yacute
ENCODING 221
SWIDTH 623 0
DWIDTH 21 0
BBX 21 32 0 0
BITMAP
001e00
003c00
003800
007000
00e000
000000
000000
f00078
780070
7c00f0
3c01e0
3e01c0
1e03c0
1f0380
0f8700
078f00
07ce00
03de00
03fc00
01f800
01f800
00f000
00f000
00f000
00f000
00f000
00f000
00f000
00f000
00f000
00f000
00f000
ENDCHAR
STARTCHAR Tcedilla
ENCODING 222
SWIDTH 633 0
DWIDTH 21 0
BBX 22 33 0 -8
BITMAP
fffffc
fffffc
fffffc
007800
007800
007800
007800
007800
007800
007800
007800
007800
007800
007800
007800
007800
007800
007800
007800
007800
007800
007800
007800
007800
007800
003000
006000
006000
003800
003800
003800
00f800
00f000
ENDCHAR
STARTCHAR ssharp
ENCODING 223
SWIDTH 598 0
DWIDTH 20 0
BBX 17 27 3 0
BITMAP
1fc000
3ff000
7ff000
78f800
f07800
f07800
f07800
f07000
f0f000
f0e000
f1c000
f1c000
f1e000
f1f000
f1f800
f0fc00
f07e00
f03f00
f01f00
f00780
f00780
f00380
f00380
f30780
f3ff00
f3fe00
f0fc00
ENDCHAR
STARTCHAR racute
ENCODING 224
SWIDTH 409 0
DWIDTH 14 0
BBX 11 24 3 0
BITMAP
01e0
03c0
0380
0700
0e00
0000
f0e0
f3e0
f7e0
fe00
fc00
f800
f000
f000
f000
f000
f000
f000
f000
f000
f000
f000
f000
f000
ENDCHAR
STARTCHAR aacute
ENCODING 225
SWIDTH 552 0
DWIDTH 19 0
BBX 17 25 1 0
BITMAP
00f000
01e000
01c000
038000
070000
000000
000000
07f000
3ff800
3ffc00
307c00
203c00
003c00
003c00
07fc00
1ffc00
7ffc00
7c3c00
f83c00
f03c00
f03c00
f87c00
7fff80
7fcf80
1f0780
ENDCHAR
STARTCHAR acircumflex
ENCODING 226
SWIDTH 552 0
DWIDTH 19 0
BBX 17 25 1 0
BITMAP
03e000
03e000
077000
0e3800
1c1c00
000000
000000
07f000
3ff800
3ffc00
307c00
203c00
003c00
003c00
07fc00
1ffc00
7ffc00
7c3c00
f83c00
f03c00
f03c00
f87c00
7fff80
7fcf80
1f0780
ENDCHAR
STARTCHAR abreve
ENCODING 227
SWIDTH 552 0
DWIDTH 19 0
BBX 17 24 1 0
BITMAP
301800
383800
1ff000
0fe000
07c000
000000
07f000
3ff800
3ffc00
307c00
203c00
003c00
003c00
07fc00
1ffc00
7ffc00
7c3c00
f83c00
f03c00
f03c00
f87c00
7fff80
7fcf80
1f0780
ENDCHAR
STARTCHAR adiaeresis
ENCODING 228
SWIDTH 552 0
DWIDTH 19 0
BBX 17 23 1 0
BITMAP
0e3800
0e3800
0e3800
000000
000000
07f000
3ff800
3ffc00
307c00
203c00
003c00
003c00
07fc00
1ffc00
7ffc00
7c3c00
f83c00
f03c00
f03c00
f87c00
7fff80
7fcf80
1f0780
ENDCHAR
STARTCHAR lacute
ENCODING 229
SWIDTH 289 0
DWIDTH 10 0
BBX 7 32 3 0
BITMAP
1e
3c
38
70
e0
00
f0
f0
f0
f0
f0
f0
f0
f0
f0
f0
f0
f0
f0
f0
f0
f0
f0
f0
f0
f0
f0
f0
f0
f0
f0
f0
ENDCHAR
STARTCHAR cacute
ENCODING 230
SWIDTH 518 0
DWIDTH 17 0
BBX 14 24 2 0
BITMAP
0078
00f0
00e0
01c0
0380
0000
07fc
1ffc
3ffc
7e0c
7c00
7800
f000
f000
f000
f000
f000
f000
7800
7c00
3e04
3ffc
0ffc
07f0
ENDCHAR
STARTCHAR ccedilla
ENCODING 231
SWIDTH 518 0
DWIDTH 17 0
BBX 14 25 2 -7
BITMAP
07fc
1ffc
3ffc
7e0c
7c00
7800
f000
f000
f000
f000
f000
f000
7800
7c00
3e04
3ffc
0ffc
07f0
0300
0300
01c0
01c0
01c0
07c0
0780
ENDCHAR
STARTCHAR ccaron
ENCODING 232
SWIDTH 518 0
DWIDTH 17 0
BBX 14 24 2 0
BITMAP
3838
1c70
0ee0
07c0
07c0
0000
07fc
1ffc
3ffc
7e0c
7c00
7800
f000
f000
f000
f000
f000
f000
7800
7c00
3e04
3ffc
0ffc
07f0
ENDCHAR
STARTCHAR eacute
ENCODING 233
SWIDTH 557 0
DWIDTH 19 0
BBX 15 25 2 0
BITMAP
00f0
01e0
01c0
0380
0700
0000
0000
07e0
1ff0
3ff8
3c3c
781c
701e
f01e
fffe
fffe
fffe
f000
f000
7800
7c00
3e06
1ffe
0ffe
03f8
ENDCHAR
STARTCHAR eogonek
ENCODING 234
SWIDTH 557 0
DWIDTH 19 0
BBX 15 23 2 -5
BITMAP
07e0
1ff0
3ff8
3c3c
781c
701e
f01e
fffe
fffe
fffe
f000
f000
7800
7c00
3e06
1ffe
0ffe
03f8
01c0
0700
0700
07a0
03e0
ENDCHAR
STARTCHAR ediaeresis
ENCODING 235
SWIDTH 557 0
DWIDTH 19 0
BBX 15 23 2 0
BITMAP
1c70
1c70
1c70
0000
0000
07e0
1ff0
3ff8
3c3c
781c
701e
f01e
fffe
fffe
fffe
f000
f000
7800
7c00
3e06
1ffe
0ffe
03f8
ENDCHAR
STARTCHAR ecaron
ENCODING 236
SWIDTH 557 0
DWIDTH 19 0
BBX 15 24 2 0
BITMAP
3838
1c70
0ee0
07c0
07c0
0000
07e0
1ff0
3ff8
3c3c
781c
701e
f01e
fffe
fffe
fffe
f000
f000
7800
7c00
3e06
1ffe
0ffe
03f8
ENDCHAR
STARTCHAR iacute
ENCODING 237
SWIDTH 289 0
DWIDTH 10 0
BBX 7 25 4 0
BITMAP
1e
3c
38
70
e0
00
00
78
78
78
78
78
78
78
78
78
78
78
78
78
78
78
78
78
78
ENDCHAR
STARTCHAR icircumflex
ENCODING 238
SWIDTH 289 0
DWIDTH 10 0
BBX 11 25 6 0
BITMAP
1f00
1f00
3b80
71c0
e0e0
0000
0000
1e00
1e00
1e00
1e00
1e00
1e00
1e00
1e00
1e00
1e00
1e00
1e00
1e00
1e00
1e00
1e00
1e00
1e00
ENDCHAR
STARTCHAR dcaron
ENCODING 239
SWIDTH 810 0
DWIDTH 27 0
BBX 22 29 2 0
BITMAP
00007c
00007c
00007c
000f7c
000f1c
000f1c
000f1c
000f18
000f38
000f60
000f00
078f00
1fef00
3fff00
7c3f00
781f00
780f00
f00f00
f00f00
f00f00
f00f00
f00f00
f00f00
f00f00
781f00
7c3f00
3fef00
3fcf00
0f8f00
ENDCHAR
STARTCHAR dstroke
ENCODING 240
SWIDTH 720 0
DWIDTH 24 0
BBX 19 26 2 0
BITMAP
000f00
000f00
000f00
007fe0
007fe0
000f00
000f00
000f00
078f00
1fef00
3fff00
7c3f00
781f00
780f00
f00f00
f00f00
f00f00
f00f00
f00f00
f00f00
f00f00
781f00
7c3f00
3fef00
3fcf00
0f8f00
ENDCHAR
STARTCHAR nacute
ENCODING 241
SWIDTH 620 0
DWIDTH 21 0
BBX 15 24 3 0
BITMAP
00f0
01e0
01c0
0380
0700
0000
f0f0
f3fc
f7fc
fe3e
fc1e
f81e
f01e
f01e
f01e
f01e
f01e
f01e
f01e
f01e
f01e
f01e
f01e
f01e
ENDCHAR
STARTCHAR ncaron
ENCODING 242
SWIDTH 620 0
DWIDTH 21 0
BBX 15 24 3 0
BITMAP
7070
38e0
1dc0
0f80
0f80
0000
f0f0
f3fc
f7fc
fe3e
fc1e
f81e
f01e
f01e
f01e
f01e
f01e
f01e
f01e
f01e
f01e
f01e
f01e
f01e
ENDCHAR
STARTCHAR oacute
ENCODING 243
SWIDTH 614 0
DWIDTH 21 0
BBX 17 25 2 0
BITMAP
007800
00f000
00e000
01c000
038000
000000
000000
07f000
1ffc00
3ffe00
7c1f00
780f00
780f00
f00780
f00780
f00780
f00780
f00780
f00780
780f00
780f00
7c1f00
3ffe00
1ffc00
07f000
ENDCHAR
STARTCHAR ocircumflex
ENCODING 244
SWIDTH 614 0
DWIDTH 21 0
BBX 17 25 2 0
BITMAP
03e000
03e000
077000
0e3800
1c1c00
000000
000000
07f000
1ffc00
3ffe00
7c1f00
780f00
780f00
f00780
f00780
f00780
f00780
f00780
f00780
780f00
780f00
7c1f00
3ffe00
1ffc00
07f000
ENDCHAR
STARTCHAR odoubleacute
ENCODING 245
SWIDTH 614 0
DWIDTH 21 0
BBX 17 24 2 0
BITMAP
007700
006e00
00cc00
019800
033000
000000
07f000
1ffc00
3ffe00
7c1f00
780f00
780f00
f00780
f00780
f00780
f00780
f00780
f00780
780f00
780f00
7c1f00
3ffe00
1ffc00
07f000
ENDCHAR
STARTCHAR odiaeresis
ENCODING 246
SWIDTH 614 0
DWIDTH 21 0
BBX 17 23 2 0
BITMAP
0e3800
0e3800
0e3800
000000
000000
07f000
1ffc00
3ffe00
7c1f00
780f00
780f00
f00780
f00780
f00780
f00780
f00780
f00780
780f00
780f00
7c1f00
3ffe00
1ffc00
07f000
ENDCHAR
STARTCHAR division
ENCODING 247
SWIDTH 633 0
DWIDTH 21 0
BBX 20 17 1 1
BITMAP
00f000
00f000
00f000
00f000
000000
000000
000000
fffff0
fffff0
fffff0
000000
000000
000000
00f000
00f000
00f000
00f000
ENDCHAR
STARTCHAR rcaron
ENCODING 248
SWIDTH 409 0
DWIDTH 14 0
BBX 11 24 3 0
BITMAP
e0e0
71c0
3b80
1f00
1f00
0000
f0e0
f3e0
f7e0
fe00
fc00
f800
f000
f000
f000
f000
f000
f000
f000
f000
f000
f000
f000
f000
ENDCHAR
STARTCHAR uring
ENCODING 249
SWIDTH 620 0
DWIDTH 21 0
BBX 15 24 3 0
BITMAP
0380
06c0
0440
06c0
0380
0000
f01e
f01e
f01e
f01e
f01e
f01e
f01e
f01e
f01e
f01e
f01e
f01e
f03e
f07e
f8fe
7fde
7f9e
1e1e
ENDCHAR
STARTCHAR uacute
ENCODING 250
SWIDTH 620 0
DWIDTH 21 0
BBX 15 25 3 0
BITMAP
00f0
01e0
01c0
0380
0700
0000
0000
f01e
f01e
f01e
f01e
f01e
f01e
f01e
f01e
f01e
f01e
f01e
f01e
f03e
f07e
f8fe
7fde
7f9e
1e1e
ENDCHAR
STARTCHAR udoubleacute
ENCODING 251
SWIDTH 620 0
DWIDTH 21 0
BBX 15 24 3 0
BITMAP
00ee
00dc
0198
0330
0660
0000
f01e
f01e
f01e
f01e
f01e
f01e
f01e
f01e
f01e
f01e
f01e
f01e
f03e
f07e
f8fe
7fde
7f9e
1e1e
ENDCHAR
STARTCHAR udiaeresis
ENCODING 252
SWIDTH 620 0
DWIDTH 21 0
BBX 15 23 3 0
BITMAP
1c70
1c70
1c70
0000
0000
f01e
f01e
f01e
f01e
f01e
f01e
f01e
f01e
f01e
f01e
f01e
f01e
f03e
f07e
f8fe
7fde
7f9e
1e1e
ENDCHAR
STARTCHAR yacute
ENCODING 253
SWIDTH 568 0
DWIDTH 18 0
BBX 17 32 0 -7
BITMAP
007800
00f000
00e000
01c000
038000
000000
000000
f00380
f80700
780700
780700
7c0e00
3c0e00
3c1e00
3e1c00
1e1c00
1e3800
1f3800
0f7800
0f7000
07f000
07e000
07e000
03e000
03c000
03c000
03c000
038000
078000
070000
070000
0f0000
ENDCHAR
STARTCHAR tcedilla
ENCODING 254
SWIDTH 374 0
DWIDTH 13 0
BBX 11 31 1 -8
BITMAP
3c00
3c00
3c00
3c00
3c00
ffe0
ffe0
ffe0
3c00
3c00
3c00
3c00
3c00
3c00
3c00
3c00
3c00
3c00
3c00
3e00
1fe0
1fe0
07e0
0600
0c00
0c00
0700
0700
0700
1f00
1e00
ENDCHAR
STARTCHAR abovedot
ENCODING 255
SWIDTH 614 0
DWIDTH 21 0
BBX 3 4 9 21
BITMAP
e0
e0
e0
e0
ENDCHAR
ENDFONT
